<?xml version="1.0" standalone="no"?>
<!DOCTYPE svg PUBLIC "-//W3C//DTD SVG 20010904//EN"
 "http://www.w3.org/TR/2001/REC-SVG-20010904/DTD/svg10.dtd">
<svg version="1.0" xmlns="http://www.w3.org/2000/svg"
 width="801.000000pt" height="801.000000pt" viewBox="0 0 801.000000 801.000000"
 preserveAspectRatio="xMidYMid meet">
<metadata>
Created by potrace 1.14, written by Peter Selinger 2001-2017
</metadata>
<g transform="translate(0.000000,801.000000) scale(0.100000,-0.100000)"
fill="#000000" stroke="none">
<path d="M3850 7709 c-496 -23 -1053 -169 -1492 -390 -210 -106 -476 -276
-663 -425 -254 -202 -609 -594 -800 -884 -327 -497 -510 -995 -592 -1614 -25
-184 -24 -696 1 -876 72 -518 255 -1042 511 -1456 325 -526 769 -945 1360
-1284 588 -338 1403 -530 2040 -481 606 47 1180 222 1690 516 222 128 491 326
686 504 299 275 625 720 785 1072 198 437 303 811 344 1234 18 180 16 582 -4
750 -62 514 -247 1050 -515 1494 -269 445 -689 895 -1107 1187 -553 386 -1261
629 -1889 650 -82 2 -166 6 -185 7 -19 1 -96 0 -170 -4z m-290 -310 c0 -24
-23 -21 -28 4 -2 10 3 17 12 17 10 0 16 -9 16 -21z m730 -3 c11 -21 10 -27 -7
-45 l-19 -20 -18 21 c-15 17 -16 24 -5 44 16 31 32 30 49 0z m330 -165 c7 -17
22 -32 36 -35 31 -8 31 -30 -1 -44 -13 -6 -32 -26 -41 -44 l-17 -32 -18 36
c-12 23 -30 40 -50 47 -27 9 -30 13 -19 26 7 8 19 15 27 15 7 0 23 16 34 35
23 39 31 39 49 -4z m-1745 -131 c17 -52 49 -83 98 -95 40 -10 33 -30 -18 -49
-50 -20 -71 -43 -86 -98 -13 -48 -36 -49 -45 -3 -9 51 -38 81 -94 100 -27 9
-52 21 -56 26 -3 5 12 16 33 25 85 34 94 44 127 137 9 27 22 13 41 -43z m355
-40 c0 -5 -4 -10 -10 -10 -5 0 -10 5 -10 10 0 6 5 10 10 10 6 0 10 -4 10 -10z
m1689 -34 c11 -20 10 -27 -5 -44 l-17 -21 -23 22 c-21 20 -21 22 -5 44 21 29
35 29 50 -1z m-841 -10 c23 -8 56 -25 73 -38 69 -50 203 -291 287 -518 70
-187 89 -297 98 -565 l7 -220 47 -55 c78 -91 127 -162 154 -220 l26 -55 0
-376 0 -375 -25 -51 c-30 -59 -75 -97 -141 -120 -54 -18 -136 -13 -184 12
l-32 17 6 -29 c3 -15 17 -111 31 -213 14 -102 28 -194 30 -206 4 -20 10 -21
78 -16 59 3 75 1 86 -12 20 -24 28 -20 34 22 11 65 60 130 120 157 107 48 163
45 201 -12 l25 -36 -1 74 c-1 58 3 83 20 116 39 74 129 126 219 125 78 -1 118
-18 163 -70 43 -51 51 -42 24 29 -11 29 -17 76 -17 139 0 82 3 105 28 164 67
163 233 269 393 253 74 -8 175 -58 206 -103 l23 -34 12 43 c19 64 67 147 117
205 51 58 141 107 216 118 42 5 47 4 53 -18 4 -12 23 -49 42 -82 18 -32 32
-61 29 -63 -3 -3 -16 -6 -29 -7 -14 0 -23 -4 -21 -7 2 -3 -14 -15 -34 -27 -44
-25 -111 -93 -139 -142 -42 -72 -56 -136 -51 -238 3 -54 8 -104 12 -113 6 -13
-1 -17 -30 -22 -21 -4 -60 -17 -88 -31 -28 -13 -72 -31 -97 -40 -44 -16 -112
-68 -120 -94 -3 -9 -14 -7 -44 8 -50 26 -160 24 -218 -4 -79 -39 -143 -134
-135 -201 3 -30 28 -48 28 -21 0 30 48 113 82 141 66 56 158 72 221 38 l32
-17 -66 -7 c-37 -4 -81 -15 -98 -24 -50 -25 -110 -84 -133 -129 -11 -23 -22
-43 -24 -45 -1 -1 -34 -9 -73 -16 -38 -8 -83 -21 -100 -29 -34 -18 -81 -62
-81 -76 0 -6 -5 -10 -11 -10 -11 0 -9 13 6 55 4 11 -3 4 -16 -15 l-25 -35
-217 -3 -217 -2 6 27 c4 16 11 38 15 51 18 47 -30 4 -51 -47 l-12 -29 -152 -3
c-111 -3 -158 -8 -169 -18 -24 -19 -21 -38 6 -45 12 -3 195 -6 407 -6 355 0
392 -2 480 -21 91 -21 125 -22 900 -26 489 -3 796 -9 781 -14 -13 -5 -36 -18
-51 -29 -15 -11 -43 -20 -62 -21 -25 0 -28 -2 -14 -8 17 -7 17 -9 -5 -35 l-24
-27 -1255 1 -1254 0 -12 53 c-6 28 -27 125 -47 214 -41 179 -86 439 -112 641
l-18 133 22 23 c19 20 21 33 20 117 -2 121 1 189 9 189 18 0 120 -189 167
-307 20 -50 45 -99 56 -109 24 -22 75 -21 100 2 36 33 40 78 37 399 l-3 310
-26 45 c-15 25 -69 98 -121 162 l-94 118 4 187 c7 276 -16 411 -104 628 -85
206 -201 399 -249 411 -36 9 -61 -10 -115 -92 -94 -138 -182 -334 -225 -500
-35 -136 -45 -236 -45 -444 1 -102 1 -190 0 -196 0 -6 -43 -65 -95 -130 -146
-183 -136 -143 -133 -538 3 -330 3 -336 25 -357 28 -29 78 -28 109 2 13 12 38
59 55 103 48 125 143 306 160 306 11 0 23 -114 21 -202 -2 -74 0 -89 17 -105
16 -16 18 -25 11 -73 -5 -30 -18 -127 -30 -215 -34 -249 -125 -719 -148 -763
-10 -18 -2481 -19 -2511 0 -47 29 -34 38 56 38 47 0 84 3 81 6 -3 3 -46 6 -95
6 -67 1 -95 6 -118 20 -16 10 -43 25 -60 32 -26 13 68 15 785 19 792 3 818 4
910 25 87 20 124 22 435 23 387 1 429 4 433 35 4 30 -18 34 -179 34 l-137 0
-12 29 c-6 16 -22 39 -35 51 l-23 22 13 -39 c21 -57 19 -63 -17 -63 -18 0 -28
4 -23 8 13 9 13 27 1 39 -5 5 -6 2 -2 -7 7 -13 6 -13 -6 0 -23 26 -61 40 -123
42 l-60 3 -6 45 c-4 39 -33 110 -43 110 -3 0 -13 3 -23 7 -16 5 -15 3 3 -18
27 -29 54 -108 54 -152 l-1 -32 -19 24 c-13 15 -20 18 -20 9 0 -26 -35 -47
-83 -50 -29 -2 -47 -8 -47 -15 0 -7 -4 -13 -10 -13 -5 0 -10 4 -10 9 0 16 -51
59 -97 81 -25 12 -76 24 -115 27 -67 6 -69 7 -83 39 -19 46 -101 132 -150 156
-41 21 -97 27 -150 15 l-30 -7 25 19 c75 59 183 42 265 -42 30 -31 56 -70 64
-94 15 -45 27 -55 33 -25 13 59 -46 163 -117 207 -44 27 -56 30 -135 30 -66 0
-92 -4 -114 -18 -15 -10 -29 -17 -30 -15 -28 45 -67 83 -99 98 -80 35 -174 69
-211 76 -35 6 -37 9 -32 33 15 61 18 171 6 222 -28 120 -116 234 -223 287 -26
13 -47 27 -47 31 0 14 36 41 45 34 4 -5 5 -3 1 4 -4 7 5 35 19 63 l26 51 47
-7 c136 -19 253 -131 314 -299 21 -60 38 -83 38 -52 0 22 62 74 115 99 75 34
199 32 278 -4 193 -90 287 -317 220 -531 -20 -63 -13 -77 17 -33 72 105 252
105 353 1 46 -48 60 -91 55 -172 l-4 -64 32 38 c31 36 35 38 91 37 104 -1 198
-73 224 -173 7 -28 16 -51 21 -51 4 0 8 4 8 10 0 15 70 30 114 24 l42 -6 13
93 c7 52 22 152 33 222 11 71 18 130 16 132 -2 2 -24 -3 -48 -11 -133 -46
-283 37 -320 177 -7 26 -10 165 -8 392 3 338 4 354 25 400 23 50 144 216 187
256 l26 24 0 220 c0 252 13 335 80 530 49 142 98 250 174 382 81 140 97 159
167 194 70 35 123 39 187 17z m1499 -86 c145 -19 343 -143 409 -257 22 -36 25
-52 21 -88 -8 -55 -50 -176 -77 -219 -11 -19 -20 -40 -20 -47 1 -8 8 -2 16 14
8 15 19 27 23 27 5 0 30 41 55 92 50 101 64 101 16 0 -37 -79 -74 -133 -139
-202 -28 -29 -49 -56 -46 -58 2 -3 23 14 46 37 22 24 44 40 47 36 4 -4 -31
-43 -78 -86 -47 -43 -82 -79 -77 -79 21 0 181 121 241 183 l69 72 -57 -72
c-31 -39 -80 -89 -109 -111 -65 -49 -233 -163 -267 -180 l-25 -12 25 6 c54 14
275 131 325 172 20 17 20 17 1 -6 -27 -31 -194 -133 -307 -186 -101 -48 -102
-55 -5 -30 73 19 167 64 254 121 34 23 62 40 62 38 0 -2 -24 -22 -52 -44 -131
-98 -388 -195 -568 -214 -19 -2 -1 -5 42 -5 117 -3 334 48 406 94 13 9 26 13
29 10 10 -10 -139 -73 -227 -97 -47 -12 -114 -25 -150 -28 l-65 -7 42 -12 c77
-23 253 12 373 73 29 15 50 23 47 18 -3 -4 -34 -23 -69 -40 -87 -45 -204 -73
-302 -73 -164 0 -288 51 -396 160 -122 124 -172 242 -173 410 -1 110 17 181
71 284 98 187 268 293 507 314 6 1 43 -3 82 -8z m-2119 -52 c16 -16 15 -29 -3
-52 -14 -18 -15 -18 -34 5 -18 22 -18 26 -4 42 19 20 25 21 41 5z m555 -138
c3 -11 2 -20 -3 -20 -4 0 -19 -23 -34 -51 -21 -41 -24 -55 -15 -71 9 -16 8
-19 -2 -13 -9 6 -10 3 -6 -9 5 -13 3 -17 -6 -13 -7 2 -13 -3 -14 -12 -6 -48
-16 -80 -25 -75 -6 4 -8 1 -6 -7 3 -8 -1 -29 -8 -48 -8 -18 -14 -48 -14 -66 0
-36 -13 -45 -62 -45 -17 0 -28 -3 -24 -7 4 -5 94 -11 199 -14 l192 -5 -216 -2
-216 -2 34 98 c42 123 120 283 168 345 37 49 49 52 58 17z m-1752 -101 c7 -20
25 -37 45 -45 44 -18 50 -32 19 -40 -28 -7 -75 -57 -75 -80 0 -22 -18 -16 -25
9 -10 31 -43 64 -71 71 -34 9 -30 25 11 42 19 8 41 27 50 44 20 38 29 38 46
-1z m833 -27 c8 -15 27 -34 43 -41 l28 -14 -34 -14 c-21 -9 -37 -25 -44 -43
-14 -37 -18 -37 -39 0 -9 17 -29 35 -43 42 -33 15 -32 24 5 43 16 8 34 24 40
35 15 27 27 25 44 -8z m-1423 -14 c7 -13 16 -26 22 -29 10 -7 -30 -69 -44 -69
-4 0 -17 13 -29 30 l-21 29 22 31 c27 36 35 37 50 8z m329 -223 c0 -8 -7 -15
-15 -15 -8 0 -15 7 -15 15 0 8 7 15 15 15 8 0 15 -7 15 -15z m3979 -84 c-29
-40 -38 -32 -9 9 12 17 24 29 27 26 3 -2 -5 -18 -18 -35z m-2151 -47 c-7 -8
-20 -23 -29 -33 -22 -24 -30 -69 -35 -186 -3 -55 -7 -106 -9 -113 -3 -7 0 -10
6 -7 6 4 7 -3 3 -22 -6 -27 -6 -27 10 -8 17 20 17 19 12 -7 -4 -15 -2 -30 4
-33 18 -11 11 -50 -11 -63 -21 -13 -21 -18 -15 -150 9 -183 16 -255 27 -268 5
-6 7 -19 3 -28 -3 -9 -1 -22 5 -30 6 -7 9 -21 5 -30 -3 -9 -1 -16 6 -16 6 0
11 -10 10 -22 -4 -44 0 -83 8 -73 13 18 47 11 57 -12 5 -13 17 -24 25 -24 8
-1 -12 -5 -45 -9 -33 -3 -61 -6 -62 -5 -7 4 -56 241 -74 362 -27 169 -33 568
-11 668 27 124 28 125 78 125 40 0 43 -2 32 -16z m-2435 -106 c-15 -17 -18
-17 -34 -2 -17 15 -17 18 -2 41 l17 25 17 -23 c16 -22 16 -25 2 -41z m5357 6
c0 -9 -5 -14 -12 -12 -18 6 -21 28 -4 28 9 0 16 -7 16 -16z m-2663 -14 c54
-32 93 -96 93 -149 -1 -101 -62 -171 -156 -179 -126 -10 -213 86 -190 211 8
42 57 108 94 124 43 19 122 16 159 -7z m1943 7 c0 -2 -10 -12 -22 -23 l-23
-19 19 23 c18 21 26 27 26 19z m-3656 -39 c7 -18 20 -54 30 -80 23 -63 56 -93
130 -118 120 -40 123 -60 13 -100 -107 -39 -119 -53 -162 -180 -12 -36 -28
-65 -35 -65 -7 0 -23 29 -35 65 -43 127 -55 141 -162 180 -110 40 -107 58 15
104 83 32 107 58 141 150 12 33 24 63 27 68 11 17 25 7 38 -24z m4116 -33 c0
-8 -4 -15 -9 -15 -13 0 -22 16 -14 24 11 11 23 6 23 -9z m-4600 -46 c0 -5 -7
-9 -15 -9 -15 0 -20 12 -9 23 8 8 24 -1 24 -14z m4075 1 c-10 -16 -96 -72
-102 -67 -2 3 19 21 49 40 60 40 62 41 53 27z m1086 -122 c72 -110 259 -460
259 -485 0 -7 -5 -13 -12 -13 -39 0 -219 -184 -200 -205 4 -5 2 -5 -5 -1 -32
18 -103 -146 -103 -240 0 -35 -5 -44 -34 -65 -151 -108 -218 -227 -223 -399
l-2 -94 -48 -14 c-54 -16 -88 -40 -121 -87 -23 -31 -25 -32 -50 -19 -44 23
-88 27 -159 14 -119 -20 -271 -106 -293 -164 -6 -18 -16 -21 -76 -22 -55 -1
-80 -6 -120 -28 -65 -34 -76 -46 -114 -129 -18 -37 -37 -67 -42 -67 -17 0 0
77 29 137 29 59 63 92 125 124 51 26 157 44 172 29 17 -17 23 -12 29 26 11 64
46 122 95 157 44 30 53 32 130 32 45 0 82 1 82 2 0 1 -12 25 -27 55 -25 47
-28 64 -28 153 0 82 4 108 22 148 70 150 209 232 383 225 44 -2 80 -3 80 -3 0
1 -9 18 -20 40 -11 22 -20 32 -20 22 0 -14 -11 -17 -69 -17 -68 0 -69 1 -109
42 -56 57 -87 119 -107 212 -57 257 65 536 289 661 56 31 185 84 207 85 4 0
40 -51 80 -112z m-5912 78 c103 -35 156 -69 246 -160 115 -116 161 -216 171
-376 11 -156 -30 -291 -116 -384 l-43 -46 -68 0 c-49 0 -69 4 -69 13 0 6 -9
-3 -20 -21 -11 -18 -20 -33 -20 -35 0 -1 48 -2 108 -2 98 0 112 -2 167 -29 76
-38 149 -111 183 -184 24 -50 27 -69 27 -157 0 -100 -2 -107 -53 -208 -2 -4
26 -5 62 -1 58 6 71 4 119 -20 64 -31 101 -78 124 -160 15 -53 17 -55 33 -41
15 14 27 14 84 5 123 -22 216 -112 245 -239 12 -57 -1 -59 -27 -5 -12 25 -26
43 -31 40 -4 -3 -18 9 -30 27 l-22 32 25 -28 c14 -15 26 -23 26 -16 0 24 -80
87 -135 108 -62 23 -82 25 -118 12 -23 -9 -27 -6 -49 37 -56 108 -298 185
-443 139 -15 -5 -26 3 -46 32 -32 46 -100 81 -156 81 l-40 0 10 52 c29 147
-55 325 -208 438 -49 36 -51 39 -47 80 6 63 -16 147 -53 205 -31 49 -78 98
-61 65 4 -8 -1 -4 -11 10 -32 46 -111 119 -161 147 l-50 28 80 150 c44 83 118
214 165 293 97 161 88 157 202 118z m5180 -282 c9 -21 9 -30 -1 -43 -7 -9 -14
-18 -15 -20 -1 -2 -11 7 -22 20 -17 21 -17 25 -4 46 20 30 27 29 42 -3z
m-3365 -86 c7 -12 6 -21 -3 -32 -17 -20 -41 -9 -41 18 0 39 23 46 44 14z
m1057 -35 c1 -10 1 -31 0 -48 0 -16 -4 -137 -7 -267 -5 -179 -10 -238 -19
-238 -18 0 -25 72 -25 273 0 137 4 195 16 239 16 56 33 76 35 41z m-1938 -35
c6 -19 -3 -38 -18 -38 -7 0 -15 6 -18 13 -6 18 3 37 18 37 7 0 15 -6 18 -12z
m1597 -21 c0 -13 -36 -79 -81 -147 l-81 -122 -5 -237 c-3 -130 -9 -245 -13
-256 -13 -36 -22 121 -18 340 l3 210 90 117 c50 65 93 117 98 118 4 0 7 -11 7
-23z m1917 7 c8 -21 -13 -42 -28 -27 -13 13 -5 43 11 43 6 0 13 -7 17 -16z
m523 -4 c0 -5 -4 -10 -10 -10 -5 0 -10 5 -10 10 0 6 5 10 10 10 6 0 10 -4 10
-10z m-992 -112 c-4 -27 -33 -36 -42 -13 -8 22 1 35 25 35 15 0 20 -6 17 -22z
m682 -48 c0 -5 -4 -10 -10 -10 -5 0 -10 5 -10 10 0 6 5 10 10 10 6 0 10 -4 10
-10z m-285 -10 c-3 -5 -10 -10 -16 -10 -5 0 -9 5 -9 10 0 6 7 10 16 10 8 0 12
-4 9 -10z m-2915 -10 c0 -5 -2 -10 -4 -10 -3 0 -8 5 -11 10 -3 6 -1 10 4 10 6
0 11 -4 11 -10z m355 0 c3 -5 1 -10 -4 -10 -6 0 -11 5 -11 10 0 6 2 10 4 10 3
0 8 -4 11 -10z m-2224 -153 c21 -21 50 -63 65 -92 22 -46 25 -64 22 -124 l-3
-71 31 0 c43 0 130 -28 173 -54 56 -36 130 -121 159 -184 21 -46 27 -76 30
-152 4 -86 1 -101 -22 -154 -14 -33 -25 -60 -24 -61 2 -2 28 -10 58 -19 115
-33 229 -166 245 -287 l6 -44 -20 43 c-25 53 -61 100 -61 81 0 -11 -2 -11 -9
1 -6 8 -7 18 -4 24 3 5 1 6 -6 2 -6 -4 -9 -13 -5 -19 3 -7 -12 6 -34 29 -22
22 -61 53 -88 69 -51 30 -154 65 -193 65 -22 0 -22 1 10 23 48 32 63 69 67
164 4 71 1 89 -22 138 -16 35 -50 81 -88 119 -76 75 -149 108 -245 110 -35 1
-63 2 -63 4 0 1 7 14 16 27 36 56 -42 197 -141 252 -17 10 -17 13 0 64 10 30
24 69 32 87 l14 33 30 -18 c17 -10 49 -35 70 -56z m6689 -32 c17 -50 27 -91
21 -93 -5 -2 -28 -16 -49 -32 -50 -36 -107 -145 -99 -188 6 -27 4 -28 -66 -46
-100 -25 -163 -59 -224 -119 -138 -135 -148 -349 -20 -427 l30 -18 -40 5 c-45
6 -151 -32 -218 -77 -68 -47 -154 -145 -185 -212 -31 -68 -37 -58 -20 33 28
149 168 299 278 299 18 0 32 4 32 9 0 5 -12 35 -26 67 -22 48 -27 75 -28 144
0 79 3 92 36 163 64 133 161 209 297 230 l66 11 -3 72 c-5 80 13 133 64 193
36 44 105 94 115 84 4 -5 21 -48 39 -98z m-4695 -189 c30 -30 32 -36 19 -47
-8 -7 -22 -25 -30 -41 -16 -30 -34 -37 -34 -13 0 9 -11 27 -25 41 l-26 26 26
23 c14 13 25 29 25 35 0 17 9 12 45 -24z m1205 -36 c11 -7 -5 -10 -52 -10 -39
0 -68 4 -68 10 0 13 100 13 120 0z m587 -137 c-2 -27 -3 -5 -3 47 0 52 1 74 3
48 2 -27 2 -69 0 -95z m-637 60 c0 -21 4 -44 9 -52 9 -14 119 -30 221 -31 47
0 61 -3 53 -11 -13 -13 -135 -19 -251 -12 l-83 6 7 61 c8 70 10 76 30 76 10 0
14 -12 14 -37z m1209 -22 c17 -16 31 -31 31 -34 0 -2 -16 -21 -35 -41 -19 -21
-35 -33 -35 -27 0 5 -12 23 -26 40 l-26 31 24 29 c13 17 26 30 29 30 4 1 21
-12 38 -28z m-1187 -173 c8 -18 26 -53 39 -78 l24 -45 3 30 c5 62 13 95 23 95
11 0 13 -5 29 -68 11 -43 31 -53 36 -19 1 10 14 27 27 38 14 10 29 34 33 52
l7 32 9 -25 c5 -14 18 -95 29 -180 50 -401 104 -693 269 -1465 29 -132 53
-255 55 -273 1 -18 5 -36 9 -39 3 -3 5 -31 4 -62 l-1 -56 -7 55 -7 55 -1 -47
c-2 -50 -21 -68 -23 -20 0 15 -3 21 -6 15 -2 -7 -12 -13 -21 -13 -15 0 -15 -2
-2 -10 8 -5 10 -10 5 -10 -6 0 -16 5 -22 11 -16 16 -30 4 -37 -34 -7 -38 38
-371 59 -434 7 -20 33 -4 39 23 4 15 14 24 26 24 23 0 35 16 18 23 -7 2 -1 4
13 3 14 0 26 -6 26 -13 0 -7 -4 -10 -9 -7 -4 3 -15 -2 -24 -10 -8 -9 -22 -16
-30 -16 -8 0 -12 -4 -9 -10 4 -6 16 -5 33 4 39 19 85 29 77 16 -3 -5 -14 -10
-24 -10 -28 0 -112 -39 -154 -73 -32 -24 -41 -28 -48 -16 -5 8 -9 20 -9 27 0
6 -6 12 -12 12 -10 0 -10 2 -1 8 8 5 4 57 -18 202 -16 107 -36 250 -46 318 -9
67 -21 122 -25 122 -4 0 -8 -3 -8 -7 0 -5 -3 -19 -6 -33 -4 -20 -3 -22 5 -10
9 12 11 9 11 -15 0 -21 -3 -26 -9 -16 -13 20 -4 -239 9 -274 5 -14 8 -31 5
-36 -3 -5 0 -93 6 -197 l13 -189 -31 -47 c-17 -26 -40 -67 -50 -92 -13 -32
-24 -44 -39 -44 -33 0 -104 -28 -138 -54 -30 -22 -32 -22 -50 -5 -25 24 -80
49 -123 56 -29 5 -38 13 -50 41 -8 19 -32 62 -53 96 -37 59 -38 63 -29 116 17
108 32 444 21 481 -5 20 -8 69 -6 110 l3 74 -9 -55 c-6 -30 -14 -91 -19 -135
-5 -44 -21 -168 -35 -275 -14 -107 -26 -199 -26 -203 0 -5 -17 5 -39 22 -37
30 -38 32 -31 73 10 50 46 299 54 373 l6 50 -15 -40 c-9 -22 -16 -53 -17 -68
l-1 -28 -24 22 c-12 13 -23 28 -23 36 0 16 -16 17 -25 2 -5 -6 -12 -4 -20 8
-17 22 -25 15 -28 -25 -1 -16 -5 -28 -9 -25 -5 2 -8 -7 -8 -21 0 -14 -5 -28
-10 -31 -7 -4 -9 3 -4 22 17 76 25 103 34 108 6 3 10 12 10 18 0 7 -4 6 -11
-3 -8 -12 -9 -11 -5 5 3 11 27 133 55 270 27 138 84 408 125 600 102 479 137
684 181 1050 20 165 26 195 34 195 4 0 14 -15 23 -32z m-882 -24 c0 -8 3 -14
8 -14 4 0 13 -4 21 -9 11 -7 10 -12 -5 -28 -11 -11 -24 -28 -31 -39 -11 -18
-13 -17 -25 14 -7 19 -19 32 -30 32 -24 0 -23 17 2 25 11 3 25 15 31 26 11 21
29 17 29 -7z m-2410 -104 c79 -25 130 -52 123 -63 -4 -6 0 -8 10 -4 10 4 16 2
14 -6 -1 -7 3 -11 9 -10 7 1 20 -7 29 -17 10 -11 14 -20 9 -20 -5 0 2 -10 16
-21 l25 -21 -25 15 c-14 8 -24 20 -23 26 2 6 -3 11 -10 11 -7 0 -29 11 -48 26
-49 36 -112 62 -203 84 -43 11 -81 22 -85 26 -10 11 100 -7 159 -26z m6945 21
c-11 -5 -51 -14 -90 -21 -38 -8 -81 -21 -95 -30 -14 -10 -31 -15 -39 -12 -31
11 141 70 204 71 30 0 35 -2 20 -8z m-247 -73 c-3 -11 -15 -22 -90 -77 -23
-17 -20 -12 11 17 24 23 48 42 52 42 4 0 9 7 13 15 6 18 17 20 14 3z m-6295
-245 c-7 -2 -19 -2 -25 0 -7 3 -2 5 12 5 14 0 19 -2 13 -5z m669 -58 c58 -40
98 -120 97 -189 l-1 -51 -14 44 c-8 25 -19 50 -25 55 -7 8 -7 1 1 -19 9 -23 8
-27 0 -19 -7 7 -13 23 -13 37 -1 14 -3 24 -4 23 -2 -1 -25 19 -52 45 -56 54
-102 68 -165 51 -29 -7 -45 -7 -53 0 -39 32 17 58 119 55 56 -2 74 -8 110 -32z
m4881 20 c20 -8 21 -14 3 -38 -11 -14 -19 -16 -40 -7 -42 15 -98 12 -131 -8
-56 -35 -102 -87 -120 -137 -28 -81 -29 -82 -33 -46 -10 91 40 185 120 226 46
23 61 26 118 22 36 -3 73 -9 83 -12z m-723 -148 c0 -2 -10 -12 -22 -23 l-23
-19 19 23 c18 21 26 27 26 19z m-3871 -92 c31 -16 85 -74 77 -83 -3 -3 -23 7
-43 21 -21 14 -55 33 -75 43 -21 10 -38 21 -38 26 0 13 49 9 79 -7z m4136 -11
c-28 -15 -54 -31 -60 -37 -7 -7 -6 -8 3 -3 18 10 15 1 -5 -15 -11 -10 -14 -10
-9 -1 10 16 0 15 -30 -4 -28 -19 -38 -15 -28 11 12 30 94 75 138 75 l41 0 -50
-26z m-3262 -51 c-13 -2 -35 -2 -50 0 -16 2 -5 4 22 4 28 0 40 -2 28 -4z
m-2001 -173 c86 -29 140 -62 202 -125 100 -100 146 -212 146 -361 0 -88 -26
-207 -59 -273 -12 -22 -21 -42 -21 -45 0 -3 16 6 36 19 53 36 127 55 214 55
145 0 267 -54 381 -169 92 -94 134 -172 155 -292 16 -95 7 -194 -27 -283 -10
-28 -18 -50 -16 -51 1 -1 20 -7 43 -13 86 -25 173 -114 208 -213 10 -27 19
-49 20 -49 0 0 19 7 41 15 94 34 235 7 343 -65 110 -74 194 -214 204 -338 2
-25 6 -31 18 -27 229 90 476 -7 593 -231 49 -95 69 -186 65 -296 -3 -84 -2
-88 17 -80 11 4 54 7 95 7 153 -1 281 -95 345 -251 19 -47 24 -52 35 -39 48
58 187 57 252 -2 17 -15 18 -15 18 2 0 9 14 43 31 75 66 125 196 214 313 215
34 0 78 -4 99 -8 27 -6 37 -5 32 2 -3 6 -6 48 -6 94 -1 256 153 473 376 532
94 24 156 20 281 -20 19 -6 22 -2 26 42 6 62 47 162 88 216 48 62 132 126 202
154 79 32 195 41 256 20 23 -8 44 -12 46 -8 2 3 11 29 20 58 30 91 155 203
227 203 24 0 24 -1 -11 95 -59 162 -8 376 125 523 71 78 143 125 240 158 70
23 91 26 176 22 96 -5 162 -26 226 -74 19 -14 18 -8 -12 52 -111 221 -79 460
86 627 145 146 353 192 575 126 l74 -22 -5 -36 c-3 -20 -10 -79 -16 -131 -14
-130 -13 -127 -64 -134 -98 -15 -237 -111 -322 -223 -91 -120 -163 -314 -163
-440 l0 -52 -32 10 c-55 17 -207 13 -278 -6 -126 -33 -242 -104 -329 -202 -86
-96 -141 -222 -141 -323 l0 -46 -52 -19 c-78 -30 -156 -96 -215 -182 -29 -42
-53 -82 -53 -89 0 -6 -30 -33 -66 -60 -69 -51 -147 -141 -182 -210 -20 -39
-24 -41 -75 -47 -111 -11 -178 -63 -262 -205 -1 -1 -18 5 -38 13 -46 19 -126
19 -250 1 -105 -16 -144 -33 -232 -99 -93 -70 -151 -164 -170 -275 -9 -54 5
-89 50 -122 19 -14 35 -31 35 -38 0 -8 -3 -12 -7 -10 -5 2 -39 19 -78 38 -61
30 -79 34 -145 34 -108 -1 -178 -30 -256 -108 -33 -34 -73 -86 -88 -118 -15
-31 -30 -58 -33 -61 -2 -3 -28 6 -56 19 -29 13 -66 24 -83 24 -35 0 -133 -27
-151 -42 -9 -7 -16 -3 -23 18 -42 109 -112 189 -208 236 -58 29 -76 33 -147
33 -72 0 -88 -4 -150 -35 -39 -19 -73 -36 -77 -38 -5 -2 -8 3 -8 11 0 9 18 30
41 48 l41 32 -4 66 c-7 121 -81 235 -197 305 -64 38 -130 56 -246 66 l-80 7
85 1 c96 2 168 -14 236 -52 56 -31 67 -28 22 6 -50 38 -68 46 -149 64 -85 19
-238 14 -307 -10 l-41 -15 -32 50 c-62 97 -162 159 -255 159 -29 0 -36 5 -48
34 -32 77 -126 183 -216 242 -22 15 -40 34 -40 44 0 29 -73 132 -129 182 -29
26 -81 61 -115 78 l-63 31 -6 59 c-13 118 -96 272 -195 360 -63 57 -180 120
-264 145 -67 19 -156 23 -250 12 l-68 -9 0 55 c0 107 -55 267 -135 391 -85
132 -240 248 -354 263 -23 3 -44 10 -47 14 -7 11 -34 214 -34 256 0 31 3 33
53 48 140 40 276 42 389 5z m1564 -140 c1020 0 1204 -2 1204 -14 0 -11 -47
-15 -252 -20 -139 -3 -293 -6 -343 -5 -49 0 -135 -1 -190 -4 -87 -4 -90 -3
-20 3 44 3 -300 6 -764 6 l-844 -1 -16 25 c-15 23 -15 24 2 17 10 -4 561 -7
1223 -7z m4428 -15 c-5 -13 -44 -15 -258 -15 -138 0 -683 0 -1211 0 -914 -1
-960 0 -963 17 -3 17 51 18 1217 15 1077 -2 1220 -4 1215 -17z m-4837 -31 c-3
-3 -12 -4 -19 -1 -8 3 -5 6 6 6 11 1 17 -2 13 -5z m396 -1 c-7 -2 -21 -2 -30
0 -10 3 -4 5 12 5 17 0 24 -2 18 -5z m114 1 c-3 -3 -12 -4 -19 -1 -8 3 -5 6 6
6 11 1 17 -2 13 -5z m2071 -1 c-21 -2 -55 -2 -75 0 -21 2 -4 4 37 4 41 0 58
-2 38 -4z m555 0 c-40 -2 -107 -2 -150 0 -43 1 -10 3 72 3 83 0 118 -2 78 -3z
m710 0 c-46 -2 -120 -2 -165 0 -46 1 -9 3 82 3 91 0 128 -2 83 -3z m140 0 c-7
-2 -21 -2 -30 0 -10 3 -4 5 12 5 17 0 24 -2 18 -5z m195 0 c-26 -2 -71 -2
-100 0 -29 2 -8 3 47 3 55 0 79 -1 53 -3z m-3130 -70 c422 -2 533 -6 529 -15
-3 -10 -245 -13 -1165 -13 -639 0 -1162 1 -1162 2 0 1 -2 7 -5 15 -5 14 497
17 1803 11z m3520 -1 c133 -1 202 -6 200 -12 -2 -7 -381 -11 -1153 -13 -633
-1 -1156 -4 -1163 -7 -8 -3 -17 4 -22 15 -7 20 -3 20 964 20 534 0 1063 -1
1174 -3z m-4325 -39 c-46 -2 -120 -2 -165 0 -46 1 -9 3 82 3 91 0 128 -2 83
-3z m124 1 c-3 -3 -12 -4 -19 -1 -8 3 -5 6 6 6 11 1 17 -2 13 -5z m4153 -4
c147 -6 110 -6 -149 -3 -190 2 -347 6 -350 8 -6 7 264 4 499 -5z m-4778 -7
c-51 -2 -132 -2 -180 0 -48 1 -6 3 93 3 99 0 138 -2 87 -3z m781 0 c-24 -2
-62 -2 -85 0 -24 2 -5 4 42 4 47 0 66 -2 43 -4z m360 0 c-46 -2 -120 -2 -165
0 -46 1 -9 3 82 3 91 0 128 -2 83 -3z m640 0 c-29 -2 -78 -2 -110 0 -32 2 -8
3 52 3 61 0 87 -1 58 -3z m1100 0 c-13 -2 -33 -2 -45 0 -13 2 -3 4 22 4 25 0
35 -2 23 -4z m215 0 c-32 -2 -86 -2 -120 0 -35 2 -9 3 57 3 66 0 94 -1 63 -3z
m940 0 c-114 -2 -303 -2 -420 0 -117 1 -24 2 207 2 231 0 327 -1 213 -2z
m-3561 -9 c-3 -3 -12 -4 -19 -1 -8 3 -5 6 6 6 11 1 17 -2 13 -5z m70 0 c-3 -3
-12 -4 -19 -1 -8 3 -5 6 6 6 11 1 17 -2 13 -5z m3900 0 c-3 -3 -12 -4 -19 -1
-8 3 -5 6 6 6 11 1 17 -2 13 -5z m50 0 c-3 -3 -12 -4 -19 -1 -8 3 -5 6 6 6 11
1 17 -2 13 -5z m-4652 -93 c115 -8 112 -8 -92 -10 -178 -1 -213 1 -213 13 0
15 25 15 305 -3z m63 12 c-21 -2 -55 -2 -75 0 -21 2 -4 4 37 4 41 0 58 -2 38
-4z m1898 -6 c4 -4 -13 -7 -37 -6 -33 0 -39 2 -24 9 22 9 51 8 61 -3z m1333 9
c-7 -7 -408 -10 -415 -3 -4 4 89 7 206 7 117 0 211 -2 209 -4z m399 -3 c-10
-2 -28 -2 -40 0 -13 2 -5 4 17 4 22 1 32 -1 23 -4z m179 0 c-20 -2 -52 -2 -70
0 -17 2 0 4 38 4 39 0 53 -2 32 -4z m126 0 c-13 -2 -35 -2 -50 0 -16 2 -5 4
22 4 28 0 40 -2 28 -4z m165 0 c-10 -2 -26 -2 -35 0 -10 3 -2 5 17 5 19 0 27
-2 18 -5z m165 0 c-7 -2 -19 -2 -25 0 -7 3 -2 5 12 5 14 0 19 -2 13 -5z m345
0 c-27 -2 -69 -2 -95 0 -27 2 -5 3 47 3 52 0 74 -1 48 -3z m105 0 c-7 -2 -21
-2 -30 0 -10 3 -4 5 12 5 17 0 24 -2 18 -5z m150 0 c-13 -2 -33 -2 -45 0 -13
2 -3 4 22 4 25 0 35 -2 23 -4z m160 0 c-7 -2 -21 -2 -30 0 -10 3 -4 5 12 5 17
0 24 -2 18 -5z m67 -15 c0 -4 -125 -7 -277 -6 -278 2 -278 2 -88 8 273 7 365
7 365 -2z m-4267 -5 c-18 -2 -48 -2 -65 0 -18 2 -4 4 32 4 36 0 50 -2 33 -4z
m875 0 c-60 -2 -156 -2 -215 0 -60 1 -11 3 107 3 118 0 167 -2 108 -3z m1420
0 c-21 -2 -55 -2 -75 0 -21 2 -4 4 37 4 41 0 58 -2 38 -4z m670 0 c-10 -2 -28
-2 -40 0 -13 2 -5 4 17 4 22 1 32 -1 23 -4z m545 0 c-78 -2 -208 -2 -290 0
-81 1 -17 3 142 3 160 0 226 -2 148 -3z m-2510 -120 c26 -3 47 -9 47 -14 0 -5
-464 -9 -1120 -9 -672 0 -1120 4 -1120 9 0 5 6 11 13 14 16 6 2118 6 2180 0z
m3070 0 c449 -15 132 -22 -928 -23 -989 0 -1125 2 -1125 15 0 13 113 15 928
15 511 0 1017 -3 1125 -7z m-3550 -133 c386 0 498 -3 494 -13 -4 -13 -487 -16
-947 -6 -140 3 -230 3 -200 -1 30 -4 -94 -7 -277 -6 -182 0 -324 4 -315 8 13
5 11 7 -8 7 -14 1 -49 4 -79 8 -40 4 -52 3 -47 -5 9 -14 1 -14 -42 2 -27 9 60
11 445 10 263 -2 702 -3 976 -4z m3460 -2 c-2 -5 -8 -8 -14 -8 -5 0 -32 -11
-61 -25 -28 -14 -54 -22 -57 -19 -3 3 1 9 9 14 19 11 80 11 -590 9 -708 -1
-1220 9 -1220 25 0 8 265 11 969 11 533 0 967 -3 964 -7z m-248 -135 c-1 -10
-8 -17 -15 -15 -6 1 -9 -2 -5 -7 3 -6 -2 -18 -12 -28 -17 -17 -35 -18 -218
-12 -145 4 -1099 10 -1392 9 -7 0 -13 5 -13 10 0 7 272 10 796 10 l796 0 30
25 c35 30 37 30 33 8z m-3538 -33 c438 0 783 -4 783 -9 0 -17 -170 -21 -876
-20 l-721 1 5 25 c3 17 8 21 15 14 8 -8 251 -11 794 -11z m1610 -292 c-3 -7
-5 -2 -5 12 0 14 2 19 5 13 2 -7 2 -19 0 -25z m123 -4 c0 -8 -5 -12 -10 -9 -6
4 -8 11 -5 16 9 14 15 11 15 -7z m-1005 -4 c-7 -11 -1064 -11 -1290 0 -71 4
191 7 583 8 478 1 711 -1 707 -8z m862 -12 c-3 -8 -6 -5 -6 6 -1 11 2 17 5 13
3 -3 4 -12 1 -19z m1778 12 c-8 -13 -1412 -12 -1421 1 -3 5 279 9 711 9 481 0
714 -3 710 -10z m-1745 -40 c0 -5 -5 -10 -11 -10 -5 0 -7 5 -4 10 3 6 8 10 11
10 2 0 4 -4 4 -10z m2 -55 c3 3 3 -6 0 -21 -5 -25 -5 -25 -18 12 -17 48 -17
56 -1 26 7 -12 16 -20 19 -17z m5 -107 c-3 -7 -5 -2 -5 12 0 14 2 19 5 13 2
-7 2 -19 0 -25z m-820 -10 c-3 -7 -5 -2 -5 12 0 14 2 19 5 13 2 -7 2 -19 0
-25z m-127 3 c0 -8 -291 -4 -315 4 -5 2 63 4 153 4 89 1 162 -3 162 -8z m1619
5 c-2 -2 -73 -6 -156 -10 -105 -5 -153 -4 -153 3 0 7 54 11 157 11 86 0 154
-2 152 -4z m-2489 -47 c77 -38 149 -98 174 -148 9 -17 36 -38 70 -55 72 -35
156 -138 156 -191 0 -8 2 -15 5 -15 3 0 32 27 64 60 166 170 440 192 627 51
69 -52 141 -150 160 -219 l16 -57 47 -1 c59 -2 114 -30 165 -83 l40 -40 16 27
c28 46 96 85 167 97 l65 11 18 56 c36 118 137 222 261 269 54 20 82 24 179 24
102 0 122 -3 178 -26 73 -31 134 -76 182 -135 37 -46 50 -53 50 -29 0 60 101
188 176 224 30 14 61 40 79 65 35 47 115 104 183 130 30 12 86 20 154 23 90 5
117 2 176 -16 67 -20 151 -72 159 -98 2 -6 -20 -27 -49 -46 -55 -35 -103 -84
-134 -136 -18 -30 -20 -31 -94 -31 -89 0 -157 -17 -236 -58 -42 -21 -79 -32
-128 -36 -97 -8 -179 -48 -241 -118 l-48 -55 -49 34 c-74 49 -165 40 -272 -27
-47 -30 -51 -31 -99 -19 -115 27 -268 -18 -339 -100 -26 -30 -37 -37 -53 -30
-81 32 -212 -25 -270 -117 -26 -41 -31 -44 -40 -29 -24 44 -83 99 -129 123
-42 21 -65 26 -126 27 -74 0 -75 0 -118 41 -23 23 -64 52 -90 65 -60 28 -178
36 -243 16 -44 -14 -46 -13 -79 15 -43 35 -129 68 -178 68 -41 0 -110 -28
-130 -52 -11 -14 -19 -9 -66 37 -75 76 -174 121 -272 126 -34 2 -63 12 -94 31
-66 42 -133 59 -223 57 l-78 -2 -28 44 c-36 56 -80 101 -131 135 -22 15 -40
30 -40 33 0 14 56 59 97 80 66 33 109 40 228 38 104 -2 114 -4 185 -38z m2087
19 c-3 -8 -6 -5 -6 6 -1 11 2 17 5 13 3 -3 4 -12 1 -19z m-3585 -18 c64 -24
139 -80 173 -130 30 -44 88 -194 78 -204 -19 -18 -43 -4 -52 32 -15 54 -62
123 -112 164 -72 58 -104 71 -214 83 -16 1 -33 3 -37 4 -7 1 -38 54 -38 65 0
21 135 12 202 -14z m6258 16 c0 -3 -9 -21 -21 -40 -19 -33 -24 -36 -70 -36
-100 0 -209 -65 -275 -164 -18 -28 -36 -65 -40 -83 -7 -37 -16 -42 -69 -35
-38 6 -39 6 -11 11 26 5 32 13 46 61 56 188 184 289 368 290 39 0 72 -2 72 -4z
m-2663 -38 c-3 -8 -6 -5 -6 6 -1 11 2 17 5 13 3 -3 4 -12 1 -19z m-1150 -50
c-3 -7 -5 -2 -5 12 0 14 2 19 5 13 2 -7 2 -19 0 -25z m-2030 -43 c73 -36 150
-113 186 -187 29 -60 52 -191 44 -244 l-5 -31 41 15 c73 26 186 27 264 4 233
-71 389 -299 394 -576 1 -42 4 -75 8 -73 139 76 248 65 356 -34 25 -23 57 -63
72 -88 l26 -46 73 -1 c61 -1 83 -6 136 -32 72 -36 137 -95 175 -160 31 -53 63
-162 62 -212 0 -31 -3 -26 -27 40 -44 121 -124 220 -214 266 -53 27 -150 41
-186 27 -20 -8 -32 -1 -88 53 -89 87 -146 108 -279 107 -55 -1 -109 -3 -120
-5 -18 -3 -21 4 -27 71 -18 209 -205 406 -478 503 -38 14 -92 22 -177 25 -68
3 -123 10 -123 15 0 5 16 23 36 40 l36 32 -4 101 c-6 118 -33 188 -98 251 -51
50 -153 111 -205 125 -58 14 -85 27 -85 40 0 23 143 5 207 -26z m5428 26 c7
-13 -20 -27 -69 -36 -53 -9 -119 -44 -184 -95 -42 -34 -51 -46 -47 -64 5 -15
4 -17 -3 -8 -7 11 -14 8 -29 -15 -33 -46 -55 -123 -59 -211 l-4 -83 40 -41
c22 -23 40 -44 40 -47 0 -3 -46 -6 -103 -6 -127 -1 -202 -20 -326 -82 -72 -37
-112 -66 -177 -130 -99 -96 -147 -184 -166 -307 -10 -58 -15 -73 -25 -64 -22
18 -83 28 -83 13 0 -19 -24 -25 -98 -25 -53 0 -80 -6 -128 -29 -58 -27 -131
-87 -150 -123 -8 -14 -15 -15 -49 -6 -56 15 -124 3 -197 -35 -80 -42 -155
-137 -189 -240 -13 -40 -27 -76 -31 -81 -15 -19 -8 73 11 133 26 85 61 140
126 199 70 64 146 95 237 96 l66 0 20 41 c34 70 97 132 158 154 71 27 157 27
226 1 29 -11 53 -20 54 -20 1 0 4 42 7 93 17 269 166 477 396 547 75 24 169
26 237 5 27 -8 52 -15 55 -15 4 0 9 44 12 98 3 59 11 113 22 137 50 115 134
198 237 235 56 20 163 26 173 11z m-2368 -58 c-3 -10 -5 -4 -5 12 0 17 2 24 5
18 2 -7 2 -21 0 -30z m-1016 9 c-7 -2 -18 1 -23 6 -8 8 -4 9 13 5 13 -4 18 -8
10 -11z m121 -11 c2 -17 1 -28 -4 -25 -8 5 -12 54 -4 54 2 0 6 -13 8 -29z
m-487 9 c-28 -12 -267 -12 -285 0 -10 6 38 10 145 9 99 0 152 -4 140 -9z
m2030 -1 c-71 -4 -146 -4 -165 1 -23 5 22 8 130 8 l165 -1 -130 -8z m-1571
-25 c3 -8 2 -12 -4 -9 -6 3 -10 10 -10 16 0 14 7 11 14 -7z m1564 -1 c-21 -2
-55 -2 -75 0 -21 2 -4 4 37 4 41 0 58 -2 38 -4z m-750 -64 c-3 -8 -7 -3 -11
10 -4 17 -3 21 5 13 5 -5 8 -16 6 -23z m-3063 -173 c61 -28 121 -87 157 -153
28 -53 54 -136 52 -168 0 -11 -2 -38 -3 -59 -2 -66 -19 -28 -27 59 -6 73 -37
165 -51 152 -3 -3 -26 22 -51 56 -37 47 -61 68 -109 91 -34 17 -63 34 -63 39
0 14 46 6 95 -17z m5538 18 c4 -4 -13 -16 -36 -27 -62 -31 -150 -125 -185
-199 -17 -34 -37 -94 -45 -133 l-15 -70 -1 50 c-2 108 53 241 130 312 57 54
132 86 152 67z m-3282 -531 c73 -23 169 -117 195 -191 18 -51 19 -51 39 -32
11 10 43 29 70 42 42 19 67 23 155 23 89 0 113 -4 157 -23 28 -13 59 -32 69
-43 24 -27 31 -24 39 19 16 88 109 180 209 207 56 15 73 16 130 5 36 -7 66
-16 66 -20 0 -4 -18 -34 -39 -66 -22 -33 -52 -97 -68 -144 l-29 -85 -60 -5
c-45 -4 -72 -13 -111 -38 -51 -33 -133 -113 -133 -131 0 -5 -25 -7 -57 -4 -42
4 -74 0 -115 -14 -58 -20 -58 -20 -115 0 -44 14 -72 18 -119 13 -58 -6 -61 -5
-75 20 -37 71 -172 154 -249 154 -19 0 -30 6 -34 18 -3 9 -10 37 -16 62 -14
52 -53 132 -86 176 -31 40 -30 52 4 60 15 3 32 7 37 9 26 9 88 3 136 -12z
m1652 -120 c-13 -2 -33 -2 -45 0 -13 2 -3 4 22 4 25 0 35 -2 23 -4z m-80 -10
c-7 -2 -19 -2 -25 0 -7 3 -2 5 12 5 14 0 19 -2 13 -5z m-2245 -30 c-10 -2 -26
-2 -35 0 -10 3 -2 5 17 5 19 0 27 -2 18 -5z m80 0 c-10 -2 -28 -2 -40 0 -13 2
-5 4 17 4 22 1 32 -1 23 -4z m2190 -10 c-10 -2 -26 -2 -35 0 -10 3 -2 5 17 5
19 0 27 -2 18 -5z"/>
<path d="M5115 4079 c-4 -6 -5 -12 -2 -15 2 -3 7 2 10 11 7 17 1 20 -8 4z"/>
<path d="M4963 3963 c9 -2 23 -2 30 0 6 3 -1 5 -18 5 -16 0 -22 -2 -12 -5z"/>
<path d="M4912 3944 c-46 -32 -28 -41 91 -41 61 -1 102 1 91 4 -16 3 -20 10
-17 24 3 10 0 19 -6 19 -5 0 -8 -7 -5 -15 4 -8 1 -15 -5 -15 -6 0 -11 9 -11
20 0 14 -6 20 -22 19 -22 0 -22 -1 -3 -9 15 -7 8 -9 -25 -7 -25 2 -50 6 -56 9
-6 4 -20 0 -32 -8z m28 -14 c0 -5 -2 -10 -4 -10 -3 0 -8 5 -11 10 -3 6 -1 10
4 10 6 0 11 -4 11 -10z"/>
<path d="M5128 3903 c7 -3 16 -2 19 1 4 3 -2 6 -13 5 -11 0 -14 -3 -6 -6z"/>
<path d="M3258 3773 c7 -3 16 -2 19 1 4 3 -2 6 -13 5 -11 0 -14 -3 -6 -6z"/>
<path d="M4568 3773 c6 -2 18 -2 25 0 6 3 1 5 -13 5 -14 0 -19 -2 -12 -5z"/>
<path d="M5269 3715 c-3 -3 -202 -5 -442 -6 -258 0 -437 -4 -437 -10 0 -5 480
-9 1207 -9 663 0 1204 3 1200 6 -3 3 -340 7 -749 8 -409 1 -750 5 -759 9 -8 4
-17 5 -20 2z"/>
<path d="M1410 3699 c-47 -3 428 -6 1055 -6 671 -1 1126 3 1105 8 -37 9 -2017
8 -2160 -2z"/>
<path d="M6818 3693 c6 -2 18 -2 25 0 6 3 1 5 -13 5 -14 0 -19 -2 -12 -5z"/>
<path d="M3922 6110 c-67 -41 -93 -156 -49 -221 85 -128 287 -68 287 85 0 94
-62 156 -155 156 -33 0 -62 -7 -83 -20z m92 -16 c19 -19 9 -44 -54 -122 -42
-53 -63 -64 -74 -36 -21 54 11 130 67 158 40 19 42 20 61 0z"/>
<path d="M1128 4233 c6 -2 18 -2 25 0 6 3 1 5 -13 5 -14 0 -19 -2 -12 -5z"/>
<path d="M3803 3190 c0 -30 2 -43 4 -27 2 15 2 39 0 55 -2 15 -4 2 -4 -28z"/>
<path d="M3792 3090 c0 -19 2 -27 5 -17 2 9 2 25 0 35 -3 9 -5 1 -5 -18z"/>
<path d="M4356 2723 c-3 -10 -2 -43 2 -73 l8 -55 8 38 c4 25 3 43 -4 52 -7 8
-9 23 -5 35 3 11 4 20 1 20 -2 0 -7 -8 -10 -17z"/>
<path d="M3651 2704 c0 -11 3 -14 6 -6 3 7 2 16 -1 19 -3 4 -6 -2 -5 -13z"/>
<path d="M3643 2645 c0 -22 2 -30 4 -17 2 12 2 30 0 40 -3 9 -5 -1 -4 -23z"/>
<path d="M3580 2510 c0 -5 5 -10 10 -10 6 0 10 5 10 10 0 6 -4 10 -10 10 -5 0
-10 -4 -10 -10z"/>
<path d="M5101 1349 c-25 -5 -49 -13 -54 -18 -6 -6 5 -6 29 0 22 4 73 9 114
10 53 1 68 3 50 9 -32 10 -84 10 -139 -1z"/>
</g>
</svg>
